<svg xmlns="http://www.w3.org/2000/svg" xmlns:xlink="http://www.w3.org/1999/xlink" width="500" zoomAndPan="magnify" viewBox="0 0 375 374.999991" height="500" preserveAspectRatio="xMidYMid meet" version="1.0"><defs><clipPath id="id1"><path d="M 183 50.25 L 324.613281 50.25 L 324.613281 192 L 183 192 Z M 183 50.25 " clip-rule="nonzero"/></clipPath><clipPath id="id2"><path d="M 50.113281 183 L 191 183 L 191 324.75 L 50.113281 324.75 Z M 50.113281 183 " clip-rule="nonzero"/></clipPath></defs><path fill="#2a2963" d="M 266.839844 194.367188 L 253.058594 194.367188 C 250.316406 218.910156 229.832031 236.769531 228.695312 237.746094 C 191.320312 269.894531 134.335938 253.542969 120.601562 205.988281 C 107.265625 159.796875 146.128906 113.9375 193.742188 119.96875 C 206.539062 121.589844 218.660156 125.539062 228.738281 135.089844 L 214.410156 149.023438 C 210.285156 146.988281 206.414062 144.589844 202.226562 143.144531 C 198.039062 141.699219 193.488281 140.601562 189.050781 140.324219 C 162.96875 138.582031 140.511719 159 138.957031 185.597656 C 137.480469 210.804688 157.632812 233.453125 182.898438 234.984375 C 208.890625 236.5625 231.664062 216.527344 233.328125 190.625 C 233.757812 183.898438 231.230469 180.949219 224.46875 180.871094 C 212.738281 180.738281 201 180.917969 189.265625 180.765625 C 184.222656 180.703125 179.597656 181.753906 179.53125 187.515625 C 179.445312 193.34375 184.152344 194.382812 189.132812 194.328125 C 198.824219 194.226562 208.492188 194.296875 218.605469 194.296875 C 216.609375 207.929688 206.773438 217.703125 192.878906 220.78125 C 179.773438 223.6875 164.691406 217.5 157.472656 206.257812 C 148.511719 192.292969 150.710938 173.527344 162.554688 162.957031 C 175.632812 151.285156 193.792969 150.527344 207.195312 161.09375 C 214.992188 167.238281 215.863281 167.210938 222.851562 160.125 C 229.03125 153.855469 235.21875 147.589844 241.277344 141.203125 C 246.714844 135.476562 246.539062 133.21875 240.613281 127.847656 C 215.089844 104.664062 179.183594 99.949219 148.792969 115.796875 C 118.535156 131.578125 101.644531 163.902344 106.046875 198 C 110.0625 229.199219 126.859375 251.148438 155.777344 262.699219 C 170.652344 268.644531 200.761719 273.65625 228.234375 256.078125 C 260.925781 235.15625 266.839844 196.285156 266.839844 194.367188 Z M 266.839844 194.367188 " fill-opacity="1" fill-rule="nonzero"/><path fill="#2a2963" d="M 255.898438 116.894531 C 254.746094 115.769531 253.566406 114.671875 252.363281 113.601562 C 251.160156 112.53125 249.929688 111.492188 248.675781 110.480469 C 247.421875 109.472656 246.140625 108.492188 244.839844 107.542969 C 243.539062 106.59375 242.214844 105.679688 240.867188 104.792969 C 239.523438 103.910156 238.15625 103.058594 236.769531 102.238281 C 235.382812 101.421875 233.976562 100.636719 232.550781 99.886719 C 231.125 99.136719 229.683594 98.421875 228.226562 97.738281 C 226.765625 97.058594 225.289062 96.414062 223.800781 95.804688 C 222.308594 95.195312 220.804688 94.621094 219.285156 94.085938 C 217.769531 93.546875 216.238281 93.046875 214.695312 92.585938 C 213.152344 92.121094 211.601562 91.699219 210.039062 91.308594 C 208.476562 90.921875 206.902344 90.570312 205.324219 90.261719 C 203.746094 89.949219 202.160156 89.675781 200.566406 89.441406 C 198.972656 89.207031 197.375 89.007812 195.773438 88.851562 C 194.171875 88.691406 192.566406 88.574219 190.957031 88.492188 C 189.347656 88.414062 187.738281 88.371094 186.128906 88.371094 C 184.519531 88.367188 182.910156 88.402344 181.300781 88.480469 C 179.691406 88.554688 178.085938 88.667969 176.484375 88.820312 C 174.882812 88.972656 173.285156 89.164062 171.691406 89.394531 C 170.097656 89.625 168.507812 89.894531 166.929688 90.203125 C 165.347656 90.507812 163.777344 90.855469 162.210938 91.238281 C 160.648438 91.621094 159.09375 92.039062 157.550781 92.5 C 156.007812 92.957031 154.476562 93.453125 152.953125 93.984375 C 151.433594 94.515625 149.929688 95.082031 148.4375 95.6875 C 146.945312 96.292969 145.46875 96.933594 144.003906 97.609375 C 142.542969 98.285156 141.101562 99 139.671875 99.746094 C 138.246094 100.492188 136.835938 101.269531 135.449219 102.085938 C 134.058594 102.898438 132.6875 103.746094 131.339844 104.625 C 129.992188 105.507812 128.664062 106.417969 127.359375 107.363281 C 126.054688 108.308594 124.773438 109.285156 123.515625 110.289062 C 122.257812 111.296875 121.027344 112.332031 119.820312 113.398438 C 118.609375 114.464844 117.429688 115.558594 116.273438 116.683594 L 108.761719 108.945312 C 110.039062 107.699219 111.347656 106.488281 112.6875 105.308594 C 114.023438 104.125 115.390625 102.976562 116.78125 101.863281 C 118.175781 100.75 119.59375 99.667969 121.039062 98.621094 C 122.484375 97.574219 123.957031 96.5625 125.449219 95.589844 C 126.945312 94.613281 128.460938 93.675781 130 92.773438 C 131.539062 91.871094 133.097656 91.007812 134.679688 90.179688 C 136.261719 89.351562 137.859375 88.566406 139.480469 87.816406 C 141.097656 87.066406 142.734375 86.355469 144.390625 85.6875 C 146.042969 85.015625 147.710938 84.386719 149.394531 83.796875 C 151.078125 83.207031 152.773438 82.660156 154.484375 82.152344 C 156.195312 81.644531 157.917969 81.179688 159.648438 80.753906 C 161.382812 80.328125 163.125 79.949219 164.875 79.609375 C 166.625 79.269531 168.382812 78.96875 170.148438 78.714844 C 171.914062 78.460938 173.683594 78.246094 175.460938 78.078125 C 177.238281 77.910156 179.015625 77.78125 180.796875 77.699219 C 182.578125 77.617188 184.359375 77.574219 186.144531 77.578125 C 187.929688 77.582031 189.710938 77.625 191.492188 77.714844 C 193.273438 77.804688 195.050781 77.9375 196.828125 78.109375 C 198.601562 78.285156 200.371094 78.503906 202.136719 78.765625 C 203.902344 79.023438 205.660156 79.328125 207.410156 79.671875 C 209.160156 80.019531 210.898438 80.40625 212.632812 80.835938 C 214.363281 81.265625 216.082031 81.734375 217.789062 82.25 C 219.5 82.761719 221.195312 83.3125 222.875 83.910156 C 224.558594 84.503906 226.226562 85.136719 227.875 85.8125 C 229.527344 86.488281 231.160156 87.203125 232.777344 87.957031 C 234.394531 88.710938 235.992188 89.503906 237.570312 90.335938 C 239.148438 91.167969 240.707031 92.035156 242.242188 92.941406 C 243.78125 93.851562 245.292969 94.792969 246.785156 95.773438 C 248.277344 96.753906 249.742188 97.769531 251.183594 98.820312 C 252.628906 99.871094 254.042969 100.957031 255.433594 102.074219 C 256.824219 103.195312 258.183594 104.347656 259.519531 105.53125 C 260.851562 106.714844 262.15625 107.933594 263.433594 109.179688 Z M 255.898438 116.894531 " fill-opacity="1" fill-rule="nonzero"/><path fill="#46509b" d="M 185.976562 295.945312 C 182.414062 295.953125 178.859375 295.789062 175.3125 295.453125 C 171.765625 295.113281 168.242188 294.605469 164.742188 293.925781 C 161.246094 293.246094 157.789062 292.398438 154.371094 291.382812 C 150.957031 290.367188 147.597656 289.191406 144.292969 287.847656 C 140.992188 286.507812 137.761719 285.007812 134.605469 283.355469 C 131.449219 281.699219 128.378906 279.894531 125.398438 277.941406 C 122.414062 275.992188 119.535156 273.898438 116.753906 271.664062 C 113.976562 269.433594 111.3125 267.070312 108.761719 264.578125 L 116.273438 256.839844 C 117.429688 257.960938 118.609375 259.058594 119.820312 260.121094 C 121.027344 261.1875 122.257812 262.226562 123.515625 263.230469 C 124.773438 264.238281 126.054688 265.214844 127.359375 266.160156 C 128.664062 267.101562 129.992188 268.015625 131.339844 268.894531 C 132.6875 269.777344 134.058594 270.625 135.445312 271.4375 C 136.835938 272.253906 138.246094 273.03125 139.671875 273.777344 C 141.097656 274.523438 142.542969 275.234375 144.003906 275.914062 C 145.464844 276.589844 146.945312 277.230469 148.4375 277.835938 C 149.929688 278.441406 151.433594 279.007812 152.953125 279.539062 C 154.472656 280.074219 156.003906 280.566406 157.550781 281.027344 C 159.09375 281.484375 160.648438 281.90625 162.210938 282.289062 C 163.773438 282.671875 165.347656 283.015625 166.929688 283.320312 C 168.507812 283.628906 170.097656 283.898438 171.691406 284.128906 C 173.28125 284.359375 174.882812 284.550781 176.484375 284.703125 C 178.085938 284.855469 179.691406 284.96875 181.300781 285.046875 C 182.910156 285.121094 184.519531 285.15625 186.128906 285.15625 C 187.738281 285.152344 189.347656 285.109375 190.957031 285.03125 C 192.5625 284.949219 194.167969 284.832031 195.773438 284.675781 C 197.375 284.515625 198.972656 284.320312 200.566406 284.085938 C 202.15625 283.847656 203.746094 283.574219 205.324219 283.265625 C 206.902344 282.953125 208.476562 282.601562 210.039062 282.214844 C 211.601562 281.828125 213.152344 281.402344 214.695312 280.941406 C 216.238281 280.476562 217.769531 279.976562 219.285156 279.441406 C 220.804688 278.902344 222.308594 278.332031 223.800781 277.722656 C 225.289062 277.113281 226.765625 276.464844 228.226562 275.785156 C 229.683594 275.105469 231.125 274.390625 232.550781 273.640625 C 233.976562 272.886719 235.382812 272.105469 236.769531 271.285156 C 238.15625 270.46875 239.523438 269.617188 240.867188 268.730469 C 242.214844 267.847656 243.539062 266.929688 244.839844 265.980469 C 246.140625 265.03125 247.421875 264.054688 248.675781 263.042969 C 249.929688 262.03125 251.160156 260.992188 252.363281 259.921875 C 253.566406 258.851562 254.746094 257.753906 255.898438 256.628906 L 263.433594 264.34375 C 260.878906 266.851562 258.210938 269.230469 255.429688 271.480469 C 252.644531 273.730469 249.757812 275.839844 246.769531 277.804688 C 243.78125 279.773438 240.703125 281.589844 237.535156 283.257812 C 234.371094 284.925781 231.128906 286.4375 227.816406 287.789062 C 224.503906 289.140625 221.132812 290.328125 217.707031 291.351562 C 214.277344 292.375 210.808594 293.226562 207.296875 293.914062 C 203.785156 294.597656 200.246094 295.109375 196.6875 295.449219 C 193.125 295.789062 189.554688 295.957031 185.976562 295.945312 Z M 185.976562 295.945312 " fill-opacity="1" fill-rule="nonzero"/><g clip-path="url(#id1)"><path fill="#46509b" d="M 324.574219 191.082031 L 313.566406 191.082031 C 313.566406 119.503906 255.394531 61.277344 183.890625 61.277344 L 183.890625 50.25 C 261.464844 50.25 324.574219 113.441406 324.574219 191.082031 Z M 324.574219 191.082031 " fill-opacity="1" fill-rule="nonzero"/></g><g clip-path="url(#id2)"><path fill="#2a2963" d="M 190.835938 324.75 C 113.273438 324.75 50.148438 261.574219 50.148438 183.921875 L 61.164062 183.921875 C 61.164062 255.496094 119.335938 313.726562 190.835938 313.726562 Z M 190.835938 324.75 " fill-opacity="1" fill-rule="nonzero"/></g></svg>